<svg version="1.1" viewBox="0 0 24 23.84" xmlns="http://www.w3.org/2000/svg" xmlns:cc="http://creativecommons.org/ns#" xmlns:dc="http://purl.org/dc/elements/1.1/" xmlns:rdf="http://www.w3.org/1999/02/22-rdf-syntax-ns#" xmlns:xlink="http://www.w3.org/1999/xlink">
 <title>Andorian Face</title>
 <defs>
  <pattern id="a" xlink:href="#b" patternTransform="matrix(.015011 0 0 .015011 -2.03e-5 -9.2057e-6)" preserveAspectRatio="xMidYMid"/>
  <pattern id="b" width="1598.8661" height="1588.2347" patternTransform="translate(.53276 3.7609)" patternUnits="userSpaceOnUse" preserveAspectRatio="xMidYMid">
   <path d="m1104.9 950.08c0 49.713-40.303 90.016-90.016 90.016-49.713 0-90.016-40.303-90.016-90.016 0-49.713 40.303-90.016 90.016-90.016 49.713 0 90.016 40.303 90.016 90.016z" stroke-width="1.3333"/>
   <path d="m674.11 950.08c0 49.713-40.303 90.016-90.016 90.016-49.713 0-90.016-40.303-90.016-90.016 0-49.713 40.303-90.016 90.016-90.016 49.713 0 90.016 40.303 90.016 90.016z" stroke-width="1.3333"/>
   <path d="m801.87 69.536c-283.73 0-735.49 326.69-735.49 713.84 0 356.48 157.48 485.07 233.15 546.89 9.6459 7.8698 17.984 14.672 22.64 19.328 11.521 11.521 26.88 17.584 42.448 17.584 4.7344 0 9.474-0.6406 14.145-1.7604 124.49 152 340.52 222.81 420.71 222.81 80.625 0 297.79-70.787 422.99-222.71 14.625 3.3749 30.255 1.3125 43.683-6.526 80.495-47.011 267.73-197.15 267.73-575.64 0-429.13-440.57-713.84-732-713.84zm-2.4011 1407.9c-65.437 0-328.81-93.437-389.28-280.33-17.167-124.32-32.093-241.05-18.161-329.19 26.579-167.99 113.06-246.15 152.85-256.63 15.073 12.641 42.527 45.599 61.473 68.355 59.823 71.869 121.7 146.17 193.12 146.17 71.073 0 131.94-73.473 190.8-144.52 19.297-23.297 47.251-57.041 62.688-69.76 32.719 10.786 122.39 82.385 152.41 256.52 13.713 79.776-1.3437 227.15-15.251 333.55-65.505 192.01-343.51 275.83-390.65 275.83zm518.19-328.95c11.698-104.15 19.521-222.03 5.9688-300.8-29.661-171.99-144.37-357.61-278-357.61-52.787 0-92.625 48.093-147.77 114.67-26.64 32.177-75.407 91.041-98.416 100.45-23.536-9.4375-73.536-69.505-100.86-102.34-54.527-65.489-93.921-112.8-145.27-112.8-109.63 0-244.25 134.32-279.81 359.09-13.645 86.339-5.3281 186.43 8.2708 293.28-50.271-69.251-95.375-177.64-95.375-359.07 0-306.23 383.97-593.84 615.49-593.84 246.43 0 612 249.36 612 593.84-0.016 176.44-45.312 291.51-96.224 365.15z" stroke-width="1.3333"/>
   <path d="m1573.5 193.41c-43.615-75.729-74.609-130.67-74.672-130.77-16.703-29.599-54.255-40.079-83.823-23.36-29.615 16.688-40.063 54.224-23.36 83.823 0 0 31.235 55.375 75.213 131.76 9.1979 15.937 21.792 37.76-24.287 77.489-45.136 38.88-104.02 90.224-104.02 90.224l80.88 92.765s58.563-51.057 103.49-89.745c107.21-92.448 77.677-185.17 50.573-232.19z" stroke-width="1.3333"/>
   <path d="m1473.5 145.28c-51.312 28.24-122.24-7.9375-134.25-29.505-11.886-21.697 19.953-62.208 71.281-90.511 51.251-28.303 102.58-33.599 114.53-11.953 11.984 21.631-0.2239 103.66-51.552 131.97z" stroke-width="1.3333"/>
   <path d="m156.36 332.39c-46.093-39.76-33.505-61.584-24.303-77.552 43.969-76.355 75.213-131.73 75.213-131.73 16.688-29.599 6.2396-67.136-23.36-83.823-29.615-16.724-67.151-6.2552-83.839 23.36-0.0625 0.11458-31.057 55.041-74.656 130.73-27.136 47.041-56.656 139.77 50.593 232.25 44.88 38.64 103.39 89.683 103.44 89.713l80.896-92.749c0-0.0156-58.88-51.364-103.98-90.208z" stroke-width="1.3333"/>
   <path d="m125.44 145.28c51.328 28.24 122.24-7.9375 134.25-29.505 11.906-21.697-19.953-62.208-71.281-90.511-51.265-28.303-102.59-33.599-114.54-11.953-11.969 21.631 0.23959 103.66 51.568 131.97z" stroke-width="1.3333"/>
  </pattern>
 </defs>
 <rect width="24" height="23.84" fill="url(#a)"/>
 <metadata>
  <rdf:RDF>
   <cc:Work rdf:about="">
    <dc:creator>
     <cc:Agent>
      <dc:title>Noun Project</dc:title>
     </cc:Agent>
    </dc:creator>
    <dc:title>Andorian Face</dc:title>
    <cc:license rdf:resource="http://creativecommons.org/licenses/by/4.0/"/>
   </cc:Work>
   <cc:License rdf:about="http://creativecommons.org/licenses/by/4.0/">
    <cc:permits rdf:resource="http://creativecommons.org/ns#Reproduction"/>
    <cc:permits rdf:resource="http://creativecommons.org/ns#Distribution"/>
    <cc:requires rdf:resource="http://creativecommons.org/ns#Notice"/>
    <cc:requires rdf:resource="http://creativecommons.org/ns#Attribution"/>
    <cc:permits rdf:resource="http://creativecommons.org/ns#DerivativeWorks"/>
   </cc:License>
  </rdf:RDF>
 </metadata>
</svg>
