<svg version="1.1" viewBox="0 0 24 24" xmlns="http://www.w3.org/2000/svg" xmlns:cc="http://creativecommons.org/ns#" xmlns:dc="http://purl.org/dc/elements/1.1/" xmlns:rdf="http://www.w3.org/1999/02/22-rdf-syntax-ns#" xmlns:xlink="http://www.w3.org/1999/xlink">
 <title>Borg Drone</title>
 <defs>
  <pattern id="a" xlink:href="#b" patternTransform="matrix(.017031 0 0 .017031 -2.6158e-7 -1.8354e-6)" preserveAspectRatio="xMidYMid"/>
  <pattern id="b" width="1409.228" height="1403.0635" fill="#000000" patternTransform="translate(0,190.76)" patternUnits="userSpaceOnUse" preserveAspectRatio="xMidYMid">
   <path d="m1105.4 763.08c0 49.713-40.303 90.016-90.016 90.016-49.713 0-90.016-40.303-90.016-90.016s40.303-90.016 90.016-90.016c49.713 0 90.016 40.303 90.016 90.016z" stroke-width="1.3333"/>
   <path d="m1302.9 577.48c12.464-173.59-28.131-318.31-118.51-420.69-89.251-101.1-225.76-156.79-384.4-156.79-107.66 0-205.35 26.317-284.96 75.584-6.4792-0.95833-13.167-1.1667-19.969 0.078124-365.03 66.645-495.07 287.55-495.07 472.04 0 98.479 29.697 176.08 88.303 230.67 33.312 31.057 71.375 51.568 106.54 62.735 13.812 156.23 98.677 264.13 174.39 264.13h23.011c90.443 208 325.31 297.83 407.76 297.83 107.33 0 391.88-126 438.08-406.27 76.131-30.208 171.15-117.97 171.15-219.37 0.01-93.953-42.912-170.49-106.32-199.93zm-1179.9-29.776c0-54.355 19.807-214.39 235.95-305.33-32.688 61.136-52.959 131.75-60.339 210.17-48.959 40.339-89.235 124.67-101.85 253.97-8.5416-5.0573-16.896-10.974-24.609-18.161-32.609-30.401-49.151-77.713-49.151-140.65zm1064.6 348.69c-28.896 0-52.943 22.224-55.213 51.011-18.74 236.69-269.84 343.04-332.47 343.04-52.401 0-233.72-71.584-304.48-229.2 16.016-11.344 34.688-20 58.339-20h61.552c34.016 0 123.07-64.369 123.07-311.91-0.02083-180.24-89.079-248.09-123.09-248.09h-61.552c-58.401 0-89.057-64-123.07-64h-16.735c13.01-64 42.339-140.09 87.568-191.04 69.136-77.921 172.33-117.27 298.4-117.27 128.25 0 232.45 42.177 301.36 120.24 77.136 87.391 107.15 220.19 86.787 383.2-1.9688 15.745 2.9271 31.839 13.437 43.745 10.51 11.907 25.631 18.864 41.521 18.864 26.735 0 55.36 40.989 55.36 101.94-0.016 56.579-86.401 117.31-110.78 119.47zm-700.77-133.31c0-54.031 43.745-97.713 97.697-97.713 53.969 0 97.713 43.683 97.713 97.713 0 54.031-43.745 97.713-97.713 97.713-53.953 0.0156-97.697-43.683-97.697-97.713z" stroke-width="1.3333"/>
  </pattern>
 </defs>
 <rect width="24" height="23.895" fill="url(#a)"/>
 <metadata>
  <rdf:RDF>
   <cc:Work rdf:about="">
    <dc:title>Borg Drone</dc:title>
    <dc:creator>
     <cc:Agent>
      <dc:title>Noun Project</dc:title>
     </cc:Agent>
    </dc:creator>
   </cc:Work>
  </rdf:RDF>
 </metadata>
</svg>
