<svg enable-background="new 0 0 100 100" version="1.1" viewBox="0 0 24 24" xmlns="http://www.w3.org/2000/svg" xmlns:cc="http://creativecommons.org/ns#" xmlns:dc="http://purl.org/dc/elements/1.1/" xmlns:rdf="http://www.w3.org/1999/02/22-rdf-syntax-ns#" xmlns:xlink="http://www.w3.org/1999/xlink">
 <title>Data</title>
 <defs>
  <pattern id="a" xlink:href="#c" patternTransform="matrix(.23881 0 0 .23881 1.7512e-6 -1.885e-6)" preserveAspectRatio="xMidYMid"/>
  <pattern id="b" xlink:href="#d" patternTransform="scale(1)" preserveAspectRatio="xMidYMid"/>
  <pattern id="d" width="100.04307" height="100.49975" fill="#000000" patternTransform="translate(0 -.49975)" patternUnits="userSpaceOnUse" preserveAspectRatio="xMidYMid">
   <g transform="translate(0 .49975)">
    <path d="m72.104 17.708c-1.867-4.668-2.801-4.668-3.735-9.337-0.934-4.668-7.469-6.536-9.337-7.47-1.867-0.934-13.072-3.735-24.276 2.801s-11.206 22.409-12.139 26.144c-0.258 1.032-0.081 2.643 0.28 4.48 0.854-1.602 2.083-2.613 3.455-2.613 2.181 0 3.279 2.083 3.567 5.376 0.986 1.952 2.035 5.39 2.035 4.895 0-6.188-1.867-14.939 1.868-21.475 2.263-3.959-1.394-5.257 2.801-8.404 3.735-2.801 8.403-1.867 14.939-1.867 5.905 0 6.824-0.839 12.139 0.934 2.801 0.934 4.049 5.606 4.668 6.537 1.868 2.801 1.816 5.34 2.802 10.271 0.934 4.669-0.934 10.27 0 10.271s1.094-3.122 3.734-8.403c0.933-1.87-0.692-6.868-2.801-12.14z"/>
    <path d="m26.352 47.586c-0.31 0-0.613-0.054-0.906-0.152-0.012 0.047-0.013 0.109-0.027 0.152-0.934 2.801 3.735 13.072 3.735 13.072s-0.452-5.879-0.727-12.602c-0.829-0.216-1.627-0.47-2.075-0.47z"/>
    <path d="m46.893 34.047a1.4 1.4 0 0 1-1.4 1.4 1.4 1.4 0 0 1-1.4-1.4 1.4 1.4 0 0 1 1.4-1.4 1.4 1.4 0 0 1 1.4 1.4z"/>
    <path d="m64.633 34.981a1.4 1.4 0 0 1-1.4 1.4 1.4 1.4 0 0 1-1.4-1.4 1.4 1.4 0 0 1 1.4-1.4 1.4 1.4 0 0 1 1.4 1.4z"/>
    <path d="m50 35.014c-1 0-1.251-0.337-1.98-0.764-0.883-0.517-1.959-1.103-2.917-1.103-1.642 0-3.403 1.704-3.42 1.721l-0.726-0.707c0.082-0.082 2.028-2.014 4.079-2.014 1.229 0 2.551 0.688 3.495 1.24 0.502 0.294 0.47 0.627 1.47 0.627v1z"/>
    <path d="m60.318 35.802-0.707-0.708c0.082-0.083 2.038-2.014 4.089-2.014 1.62 0 2.119 0.681 2.601 1.339 0.163 0.222 0.331 0.451 0.554 0.674l-0.707 0.707c-0.277-0.277-0.477-0.55-0.653-0.791-0.438-0.6-0.681-0.93-1.794-0.93-1.636 2e-3 -3.366 1.706-3.383 1.723z"/>
    <path d="m53.628 31.705c-0.129 0.056-0.244 0.076-0.344 0.076-0.111 0-0.204-0.025-0.273-0.054-0.325-0.134-0.452-0.454-0.576-0.762-0.262-0.655-0.62-1.553-2.74-1.553-2.981 0-5.556 0-7.377 0.341-0.61 0.114-2.521 1.101-3.583 1.695l-0.489-0.872c0.296-0.166 2.917-1.624 3.887-1.806 1.914-0.359 4.531-0.359 7.562-0.359 2.798 0 3.387 1.474 3.669 2.182 0.04 0.1 0.095 0.236 0.122 0.273"/>
    <path d="m68.804 33.618c-0.023-0.301-0.196-1.217-0.666-1.462-0.842-0.438-1.353-0.689-2.06-1.037-0.439-0.216-0.953-0.469-1.668-0.826-1.35-0.675-4.179 0.445-5.155 0.934l-0.447-0.895c0.406-0.202 4.018-1.95 6.05-0.934 0.712 0.356 1.225 0.608 1.662 0.824 0.714 0.351 1.229 0.604 2.08 1.047 1.046 0.544 1.188 2.099 1.202 2.274z"/>
    <path d="m55.297 53.527c-1.108 0-2.11-0.922-2.221-1.032l0.706-0.685c0.222 0.22 0.924 0.705 1.515 0.705 0.392 0 0.434-0.516 0.434-0.516h1c-1e-3 1.001-0.382 1.528-1.434 1.528z"/>
    <path d="m47.106 57.609-0.427-0.904c0.641-0.303 3.887-1.811 4.882-1.811 0.404 0 0.641 0.019 0.918 0.041 0.361 0.029 0.81 0.065 1.884 0.065 1.795 0 3.547 0.843 3.906 1.026l1.803 0.397-0.215 0.977-1.995-0.459c-0.017-9e-3 -1.784-0.941-3.499-0.941-1.114 0-1.585-0.037-1.963-0.067-0.254-0.021-0.47-0.038-0.839-0.038-0.566 0-2.946 1.002-4.455 1.714z"/>
    <path d="m59.5 46h-1c0-0.705-0.7-2.56-1.783-4.726-1.008-2.017-0.441-8.133-0.146-8.824l0.92 0.394c-1.048 2.445-0.484 6.774 0.12 7.983 0.568 1.135 1.889 3.913 1.889 5.173z"/>
    <path d="m56.123 57.982c-2.943-0.56-4.373 3e-3 -4.44 0.025l0.254 0.939c0.015-4e-3 2.035-0.355 4 0.018z"/>
    <path d="m48.761 71.429c-3.875 0-10.324-5.488-10.596-5.722l0.65-0.76c0.064 0.055 6.439 5.481 9.946 5.481 3.614 0 7.352 0 9.113-0.881 2.132-1.066 6.385-3.743 7.219-6.247 0.242-0.727 0.665-1.512 1.155-2.699 1.39-3.367 3.488-8.601 3.488-11.601h1c0 3-2.06 8.338-3.563 11.982-0.483 1.171-0.9 2.062-1.131 2.755-1.172 3.518-7.454 6.631-7.721 6.765-1.972 0.986-5.658 0.927-9.56 0.927z"/>
    <path d="m47.001 21.89-0.505-0.895c0.157-0.078 4.503-1.92 9.503-1.92v1c-4.999 0-8.961 1.797-8.998 1.815z"/>
    <path d="m54 22h8v1h-8z"/>
    <path d="m37.5 83a1.5 1.5 0 0 1-1.5 1.5 1.5 1.5 0 0 1-1.5-1.5 1.5 1.5 0 0 1 1.5-1.5 1.5 1.5 0 0 1 1.5 1.5z"/>
    <path d="m94.863 86.938c-6-3-33.3-11.402-33.3-11.402s1.167 1.402 0 2.801c-2.676 3.207-9.415 11.304-9.833 12.139-0.934 1.867-0.438 4.669-1.372 5.603s-2.628 0.86-2.801-0.934c-0.307-3.197-2.382-8.145-7.47-14.145s-12.138-12-12.138-12-4.084 5.938-5.467 6.536c-0.773 0.334-13.482 6.085-22.482 10.487v13.977h100v-8.478s0.863-1.584-5.137-4.584zm-61.363-3.938c0-1.379 1.122-2.5 2.5-2.5s2.5 1.121 2.5 2.5-1.122 2.5-2.5 2.5-2.5-1.121-2.5-2.5zm3.5 4c0-1.104 0.896-2 2-2s2 0.896 2 2-0.896 2-2 2-2-0.896-2-2zm5 6c-1.104 0-2-0.896-2-2s0.896-2 2-2 2 0.896 2 2-0.896 2-2 2z"/>
   </g>
   <path d="m56 50c-3.034 0-3.216 0-4.217-1.009l-0.137-0.138c-0.589-0.59-1.141-0.147-1.296 3e-3l-0.704-0.71c0.544-0.544 1.716-0.992 2.707 0l0.14 0.141c0.707 0.713 0.707 0.713 3.507 0.713 2.391 0 2.496-1.352 2.5-1.506l1 6e-3c0 0.025-0.04 2.5-3.5 2.5z"/>
  </pattern>
  <pattern id="c" width="100.04307" height="100.49975" fill="#000000" patternTransform="translate(0 -.49975)" patternUnits="userSpaceOnUse" preserveAspectRatio="xMidYMid">
   <rect width="100.04" height="100.5" fill="url(#b)"/>
   <path d="m58 47.5c-0.312 0-0.858 0.732-1 1-0.773 0.224-1.26 0.954-1.703 0.954-0.346 0-1.312-0.478-2.305-1.063-0.041-0.367-0.28-1.355-0.964-1.238-2.028 0.348-1.4 1.143-1.4 1.401s0.628 0.467 1.4 0.467c0.023 0 0.036-5e-3 0.059-5e-3 0.964 0.594 2.464 1.439 3.21 1.439 0.586 0 1.738-0.303 2.645-0.57 0.053 0.023 0.104 0.039 0.156 0.07 0.772 0.468 0.883-0.195 0.898-0.396 0.089-0.029 0.16-0.052 0.193-0.063l-0.316-0.948z" display="none"/>
   <path d="m62 10.5s6 0 9 2" display="none" fill="none" stroke="#000" stroke-miterlimit="10"/>
   <path d="m45 13.5s3-3 7-4" display="none" fill="none" stroke="#000" stroke-miterlimit="10"/>
  </pattern>
 </defs>
 <rect width="23.891" height="24" fill="url(#a)"/>
 <metadata>
  <rdf:RDF>
   <cc:Work rdf:about="">
    <cc:license rdf:resource="http://creativecommons.org/licenses/by/4.0/"/>
    <dc:title>Data</dc:title>
    <dc:creator>
     <cc:Agent>
      <dc:title>Noun Project / Clayton Meador</dc:title>
     </cc:Agent>
    </dc:creator>
   </cc:Work>
   <cc:License rdf:about="http://creativecommons.org/licenses/by/4.0/">
    <cc:permits rdf:resource="http://creativecommons.org/ns#Reproduction"/>
    <cc:permits rdf:resource="http://creativecommons.org/ns#Distribution"/>
    <cc:requires rdf:resource="http://creativecommons.org/ns#Notice"/>
    <cc:requires rdf:resource="http://creativecommons.org/ns#Attribution"/>
    <cc:permits rdf:resource="http://creativecommons.org/ns#DerivativeWorks"/>
   </cc:License>
  </rdf:RDF>
 </metadata>
</svg>
