<svg version="1.1" viewBox="0 0 24 24" xmlns="http://www.w3.org/2000/svg" xmlns:cc="http://creativecommons.org/ns#" xmlns:dc="http://purl.org/dc/elements/1.1/" xmlns:rdf="http://www.w3.org/1999/02/22-rdf-syntax-ns#" xmlns:xlink="http://www.w3.org/1999/xlink">
 <title>Klingon Face</title>
 <defs>
  <pattern id="a" xlink:href="#b" patternTransform="matrix(.015058 0 0 .015058 .84882 -1.1836e-5)" preserveAspectRatio="xMidYMid"/>
  <pattern id="b" width="1485.0618" height="1593.8453" patternTransform="translate(57.393 6.1773)" patternUnits="userSpaceOnUse" preserveAspectRatio="xMidYMid">
   <path d="m1048 824.58c0 49.719-40.303 90.021-90.016 90.021-49.713 0-90.016-40.303-90.016-90.021 0-49.713 40.303-90.016 90.016-90.016 49.713 0 90.016 40.303 90.016 90.016z" stroke-width="1.3333"/>
   <path d="m617.25 824.58c0 49.719-40.303 90.021-90.016 90.021s-90.016-40.303-90.016-90.021c0-49.713 40.303-90.016 90.016-90.016s90.016 40.303 90.016 90.016z" stroke-width="1.3333"/>
   <path d="m802.11 670.38s178.24-95.661 237.61-247.48c9.9844 16.464 3.0104 204.69-79.197 234.25-82.464 29.745-151.81 9.9219-158.41 13.219z" stroke-width="1.3333"/>
   <path d="m683.1 670.38s-178.24-95.661-237.61-247.48c-9.9844 16.464-3.0104 204.69 79.197 234.25 82.464 29.745 151.81 9.9219 158.41 13.219z" stroke-width="1.3333"/>
   <path d="m1368.2 799c-155.48-173.81 14.541-286.17-164.13-542.67-104.99-150.72-266.13-207.49-317.12-222.27-49.099-21.953-98.443-34.063-144.41-34.063-47.937 0-99.265 12.687-150.09 35.76-56.416 17.151-210.09 75.088-311.44 220.6-178.68 256.48-8.6615 368.84-164.13 542.65-190.81 213.21-120.49 548.67 15.375 592.31 134.55 43.12 265.79-0.849 349.92-40.303 52.177 41.661 108.09 71.167 157.51 89.375 40.125 69.797 102.86 153.45 102.86 153.45s62.593-83.489 102.73-153.21c49.807-18.464 105.39-48.464 157.05-89.855 84.115 39.521 215.64 83.76 350.48 40.541 135.89-43.636 206.19-379.09 15.391-592.31zm-368.09-544.31c59.521 67.073 155.61 210.81 130.54 419.92-1.8854 15.729 3.0416 31.505 13.568 43.344 0.2865 0.31771 0.625 0.52604 0.9115 0.83334-5.1979 72.803-17.792 165.67-31.937 242.27-20.989 6.8333-36.688 25.683-38.224 48.833-5.026 76.339-33.76 138.99-74.079 188.95-19.771-71.489-66.349-152.52-194.35-158.43v87.568s116.8 11.25 175.17 93.011c-49.088 52.369-109.33 88.339-158.33 109.12-44.339-33.937-80.527-105.52-80.527-105.52s-35.823 71.183-80 105.25c-48.719-20.989-109.41-57.265-158.51-110.05 58.672-80.645 174.21-91.812 174.21-91.812v-87.568c-128 5.8697-173.75 85.631-193.84 156.69-39.907-49.869-69.251-112.3-75.251-188.17-1.4063-17.745-10.802-32.959-24.787-42.047-14.927-82.849-26.864-184.6-34.719-264.05 3.7917-8.9115 5.6145-18.656 4.3697-28.479-26.193-209.6 68.131-352.12 126.64-418.4 88.541-100.3 195.17-145.2 261.57-145.2 77.661 0.0104 181.19 57.849 257.59 143.95z" stroke-width="1.3333"/>
  </pattern>
 </defs>
 <rect x=".84882" width="22.362" height="24" fill="url(#a)"/>
 <metadata>
  <rdf:RDF>
   <cc:Work rdf:about="">
    <dc:title>Klingon Face</dc:title>
    <dc:creator>
     <cc:Agent>
      <dc:title>Noun Project</dc:title>
     </cc:Agent>
    </dc:creator>
    <cc:license rdf:resource="http://creativecommons.org/licenses/by/4.0/"/>
   </cc:Work>
   <cc:License rdf:about="http://creativecommons.org/licenses/by/4.0/">
    <cc:permits rdf:resource="http://creativecommons.org/ns#Reproduction"/>
    <cc:permits rdf:resource="http://creativecommons.org/ns#Distribution"/>
    <cc:requires rdf:resource="http://creativecommons.org/ns#Notice"/>
    <cc:requires rdf:resource="http://creativecommons.org/ns#Attribution"/>
    <cc:permits rdf:resource="http://creativecommons.org/ns#DerivativeWorks"/>
   </cc:License>
  </rdf:RDF>
 </metadata>
</svg>
